:version 1.10
:name ASF
:units
  mass 1
  length 1
  angle deg
:documentation
  ASF file generated by Kaydara
:root
  axis xyz
  order  tx ty tz rx ry rz
  position 0 0 0
  orientation 0 0 0
:bonedata
  begin
    id 1
    name RightUpLegDummy
    direction -0.718183 -0.695806 0.00816078
    length 4.904
    axis 0 0 0 xyz
  end
  begin
    id 2
    name RightUpLeg
    direction 3.53373e-006 -0.995788 0.0916898
    length 17.4976
    axis -3.49089 -0.000906625 0.000286804 xyz
    dof rx ry rz
  end
  begin
    id 3
    name RightLeg
    direction 0.00371092 -0.995096 -0.0988419
    length 16.5821
    axis 3.68512 0.0193738 -0.131023 xyz
    dof rx ry rz
  end
  begin
    id 4
    name RightFoot
    direction 0.00079151 -0.46099 0.887405
    length 3.77069
    axis 4.81691e-005 -0.120479 -0.188788 xyz
    dof rx ry rz
  end
  begin
    id 5
    name RightToes
    direction 0 0 0
    length 0
    axis 0 0 0 xyz
    dof rx ry rz
  end
  begin
    id 6
    name SpineDummy
    direction 8.3039e-015 1 4.57515e-016
    length 4.6813
    axis 0 0 0 xyz
  end
  begin
    id 7
    name Spine
    direction -3.15643e-008 0.999988 0.00495137
    length 10.1015
    axis -0.001389 0.000121418 2.40972e-006 xyz
    dof rx ry rz
  end
  begin
    id 8
    name Spine1
    direction 0 0 0
    length 0
    axis -0.001389 0.000121451 1.30017e-006 xyz
    dof rx ry rz
  end
  begin
    id 9
    name HEadDummy
    direction -1.99912e-008 0.999999 0.00127422
    length 3.43865
    axis -0.001389 0.000121451 1.30017e-006 xyz
  end
  begin
    id 10
    name HEad
    direction 0 0 0
    length 0
    axis 0 0 0 xyz
    dof rx ry rz
  end
  begin
    id 11
    name LeftShoulder1Dummy
    direction 0.998891 -0.0402509 -0.0244456
    length 3.5433
    axis -0.001389 0.000121451 1.30017e-006 xyz
  end
  begin
    id 12
    name LeftShoulder1
    direction 0.99951 -0.000327763 0.0313091
    length 4.05031
    axis -0.001389 0.000121451 1.30017e-006 xyz
    dof rx ry rz
  end
  begin
    id 13
    name LeftArm
    direction 0.998561 -0.00100056 -0.0536182
    length 10.3537
    axis -23.1894 0.134784 0.967509 xyz
    dof rx ry rz
  end
  begin
    id 14
    name LeftForeArm
    direction 0.998903 0.00866432 0.046012
    length 8.70632
    axis -9.91835 -0.06569 -0.177794 xyz
    dof rx ry rz
  end
  begin
    id 15
    name LeftHand
    direction 0 0 0
    length 0
    axis 0 0 0 xyz
    dof rx ry rz
  end
  begin
    id 16
    name RightShoulderDummy
    direction -0.998891 -0.0402509 -0.0244414
    length 3.5433
    axis -0.001389 0.000121451 1.30017e-006 xyz
  end
  begin
    id 17
    name RightShoulder
    direction -0.99951 -0.000327807 0.0313133
    length 4.05031
    axis 0.215806 0.000203643 -0.0068026 xyz
    dof rx ry rz
  end
  begin
    id 18
    name RightArm
    direction -0.998573 -0.000999564 -0.053403
    length 10.3947
    axis -23.2009 -0.134239 -0.964101 xyz
    dof rx ry rz
  end
  begin
    id 19
    name RightForeArm
    direction -0.998898 0.00868028 0.0461306
    length 8.68355
    axis -9.92322 0.0658061 0.178868 xyz
    dof rx ry rz
  end
  begin
    id 20
    name RightHand
    direction 0 0 0
    length 0
    axis 0 0 0 xyz
    dof rx ry rz
  end
  begin
    id 21
    name LeftUpLegDummy
    direction 0.718183 -0.695806 0.00816078
    length 4.904
    axis 0 0 0 xyz
  end
  begin
    id 22
    name LeftUpLeg
    direction -6.81752e-006 -0.995793 0.0916337
    length 17.4976
    axis -3.48766 0.00143442 -0.000524262 xyz
    dof rx ry rz
  end
  begin
    id 23
    name LeftLeg
    direction -0.00601358 -0.995091 -0.0987824
    length 16.5821
    axis 3.68178 -0.00654042 -0.000285133 xyz
    dof rx ry rz
  end
  begin
    id 24
    name LeftFoot
    direction -0.00417578 -0.460984 0.887399
    length 3.77069
    axis 1.87233e-006 4.66016e-005 -8.6538e-006 xyz
    dof rx ry rz
  end
  begin
    id 25
    name LeftToes
    direction 0 0 0
    length 0
    axis 0 0 0 xyz
    dof rx ry rz
  end
:hierarchy
  begin
    root RightUpLegDummy SpineDummy LeftUpLegDummy
    RightUpLegDummy RightUpLeg
    RightUpLeg RightLeg
    RightLeg RightFoot
    RightFoot RightToes
    SpineDummy Spine
    Spine Spine1
    Spine1 HEadDummy LeftShoulder1Dummy RightShoulderDummy
    HEadDummy HEad
    LeftShoulder1Dummy LeftShoulder1
    LeftShoulder1 LeftArm
    LeftArm LeftForeArm
    LeftForeArm LeftHand
    RightShoulderDummy RightShoulder
    RightShoulder RightArm
    RightArm RightForeArm
    RightForeArm RightHand
    LeftUpLegDummy LeftUpLeg
    LeftUpLeg LeftLeg
    LeftLeg LeftFoot
    LeftFoot LeftToes
  end

:SAMPLES-PER-SECOND 30
:FULLY-SPECIFIED
:DEGREES
180
root  12.3647 40.6292 7.47991 81.6241 86.6788 80.655
RightUpLeg  -8.66495 -11.8348 -10.9462
RightLeg  10.456 -4.40787 0.65687
RightFoot  1.13263 -0.173148 1.63001
RightToes  0.000481921 0.542163 -0.142578
Spine  19.4442 4.73452 20.4624
Spine1  -1.67947 11.6476 -20.5577
HEad  14.3521 -30.2596 -1.65061
LeftShoulder1  7.1527 -11.9571 -40.0129
LeftArm  8.92835 -3.77921 -35.6695
LeftForeArm  174.901 -63.1935 -160.993
LeftHand  -0.25398 0.0180481 5.50724
RightShoulder  2.90772 9.05197 16.422
RightArm  -30.8953 46.0936 34.3796
RightForeArm  12.11 -3.53858 -0.209341
RightHand  -1.69923 7.62567 -15.5313
LeftUpLeg  -3.3548 5.20496 1.42057
LeftLeg  1.70705 19.9847 -5.21625
LeftFoot  1.75102 0.170407 -1.57479
LeftToes  1.06247e-005 4.65869e-005 -8.65511e-006
181
root  12.398 40.664 7.51023 108.608 85.9934 106.568
RightUpLeg  -8.66472 -11.9053 -11.0765
RightLeg  9.4582 -6.55981 1.22649
RightFoot  1.32815 -0.165131 1.50491
RightToes  0.000481921 0.542163 -0.142578
Spine  19.0228 5.12072 20.3543
Spine1  -2.78793 11.7094 -20.5509
HEad  13.407 -32.2834 -0.284513
LeftShoulder1  7.19683 -12.0661 -39.9746
LeftArm  10.1952 -3.15092 -36.6817
LeftForeArm  177.773 -63.4119 -161.101
LeftHand  -0.25398 0.0180481 5.50724
RightShoulder  2.45995 7.65688 15.3607
RightArm  -25.6868 39.3204 34.4851
RightForeArm  6.31762 6.51932 2.55442
RightHand  -1.7245 7.49162 -15.9069
LeftUpLeg  -4.57058 4.9288 1.43727
LeftLeg  1.40074 18.3286 -5.24935
LeftFoot  2.06274 0.207652 -1.87396
LeftToes  1.06247e-005 4.65869e-005 -8.65511e-006
182
root  12.6257 40.7375 7.6142 163.43 82.2964 160.672
RightUpLeg  -6.41081 -11.7733 -11.3121
RightLeg  7.50012 -12.5947 2.04119
RightFoot  1.23114 -0.176268 1.6775
RightToes  0.000481921 0.542163 -0.142578
Spine  16.3043 4.25592 16.1153
Spine1  -2.78197 8.67086 -14.1045
HEad  12.6428 -31.9696 0.436881
LeftShoulder1  7.21684 -11.9236 -40.5042
LeftArm  9.91241 0.266258 -37.6734
LeftForeArm  -179.586 -62.3376 -162.165
LeftHand  -0.25398 0.0180481 5.50724
RightShoulder  2.45721 5.95596 19.4937
RightArm  -16.9818 24.9913 33.7877
RightForeArm  3.77251 41.329 10.5274
RightHand  -1.43561 5.51764 -15.4705
LeftUpLeg  -5.47527 4.17903 1.56394
LeftLeg  0.73979 13.3148 -4.77378
LeftFoot  2.84492 0.22308 -1.93162
LeftToes  1.06247e-005 4.65869e-005 -8.65511e-006
183
root  12.9166 40.7828 7.75721 171.997 77.6693 169.629
RightUpLeg  -3.61359 -11.7848 -11.2955
RightLeg  6.22561 -17.1249 2.4859
RightFoot  0.772156 -0.196434 1.99175
RightToes  0.000481921 0.542163 -0.142578
Spine  14.2323 2.80429 10.0287
Spine1  -1.60878 4.97998 -5.90343
HEad  12.4267 -29.3687 -0.0291282
LeftShoulder1  6.82775 -11.1314 -40.37
LeftArm  8.5015 3.84403 -38.5801
LeftForeArm  -179.985 -61.0447 -163.04
LeftHand  -0.25398 0.0180481 5.50724
RightShoulder  2.97549 6.03563 25.0443
RightArm  -15.5024 9.74519 30.8597
RightForeArm  28.2363 72.9844 40.109
RightHand  -0.574514 0.306667 -11.6612
LeftUpLeg  -4.96371 3.81756 1.81363
LeftLeg  0.119822 8.93919 -4.35354
LeftFoot  3.3654 0.244064 -2.0497
LeftToes  1.06247e-005 4.65869e-005 -8.65511e-006
184
root  13.2109 40.7878 7.90794 172.411 75.1195 170.446
RightUpLeg  -2.14559 -12.0728 -11.5367
RightLeg  6.50071 -19.1932 2.43768
RightFoot  -0.137003 -0.215031 2.28433
RightToes  0.000481921 0.542163 -0.142578
Spine  13.1457 1.62697 4.60943
Spine1  -0.714099 2.17008 -0.0455544
HEad  12.7928 -26.2225 -0.862253
LeftShoulder1  5.95477 -9.66587 -38.9921
LeftArm  7.63878 6.00544 -39.2747
LeftForeArm  178.998 -60.5326 -163.286
LeftHand  -0.25398 0.0180481 5.50724
RightShoulder  3.19362 6.03015 27.4829
RightArm  -14.3161 -7.79845 32.5151
RightForeArm  124.223 74.8196 137.28
RightHand  -0.125129 -3.69856 -6.60449
LeftUpLeg  -4.22685 3.62529 1.76458
LeftLeg  -0.269203 6.58953 -4.1872
LeftFoot  3.61046 0.261518 -2.16065
LeftToes  1.06247e-005 4.65869e-005 -8.65511e-006
185
root  13.52 40.7621 8.03193 173.027 72.2126 170.927
RightUpLeg  -1.35826 -12.5533 -11.8767
RightLeg  7.29069 -21.4827 2.26832
RightFoot  -1.23045 -0.241243 2.69882
RightToes  0.000481921 0.542163 -0.142578
Spine  12.1563 0.087857 0.0725834
Spine1  -0.990659 -0.633026 4.37617
HEad  13.6712 -23.0987 -1.50215
LeftShoulder1  4.97228 -7.92972 -37.331
LeftArm  7.35047 7.7198 -39.3578
LeftForeArm  -179.742 -60.305 -163.544
LeftHand  -0.25398 0.0180481 5.50724
RightShoulder  2.5115 4.09937 26.9311
RightArm  -13.6635 -27.4063 39.5861
RightForeArm  151.825 59.8961 161.943
RightHand  -0.0255884 -6.05811 -1.2885
LeftUpLeg  -4.63401 3.1786 1.46347
LeftLeg  0.419201 4.17421 -3.87864
LeftFoot  3.52164 0.248086 -2.06559
LeftToes  1.06247e-005 4.65869e-005 -8.65511e-006
186
root  13.8143 40.7221 8.09503 174.788 68.8736 172.791
RightUpLeg  -0.0407637 -12.8314 -11.8719
RightLeg  7.60888 -24.3715 2.30054
RightFoot  -2.05133 -0.27512 3.23715
RightToes  0.000481921 0.542163 -0.142578
Spine  11.3506 -2.2463 -3.78687
Spine1  -1.37296 -4.05536 8.57631
HEad  14.9205 -19.0753 -2.07056
LeftShoulder1  4.16539 -6.30625 -36.3172
LeftArm  6.20189 10.2016 -39.1217
LeftForeArm  -177.58 -59.5837 -164.183
LeftHand  -0.25398 0.0180481 5.50724
RightShoulder  1.69841 1.83033 25.7511
RightArm  -13.3242 -42.6108 48.0709
RightForeArm  156.775 51.7293 166.399
RightHand  -0.050205 -6.31763 0.468642
LeftUpLeg  -5.52292 2.73622 1.38095
LeftLeg  2.30017 1.25343 -3.30901
LeftFoot  2.89901 0.200119 -1.74148
LeftToes  1.06247e-005 4.65869e-005 -8.65511e-006
187
root  14.0154 40.6965 8.08184 175.206 68.524 174.075
RightUpLeg  1.15613 -12.7517 -11.6554
RightLeg  7.86697 -24.6301 2.27805
RightFoot  -2.40317 -0.290927 3.5031
RightToes  0.000481921 0.542163 -0.142578
Spine  11.066 -3.9921 -5.91039
Spine1  -0.846474 -6.39595 10.5949
HEad  16.3452 -14.3417 -2.35923
LeftShoulder1  3.65874 -5.15071 -36.1062
LeftArm  3.96816 12.9476 -38.8696
LeftForeArm  -177.097 -58.5661 -164.831
LeftHand  -0.25398 0.0180481 5.50724
RightShoulder  1.58935 1.62564 24.8646
RightArm  -13.7553 -50.3265 55.0401
RightForeArm  154.023 49.4821 167.061
RightHand  -0.0385094 -5.48899 -2.46379
LeftUpLeg  -5.22735 2.91424 1.67072
LeftLeg  3.95391 0.595113 -2.82761
LeftFoot  1.9659 0.151103 -1.39804
LeftToes  1.06247e-005 4.65869e-005 -8.65511e-006
188
root  14.1032 40.6984 7.99837 173.182 72.8834 173.081
RightUpLeg  0.944023 -12.6071 -11.4857
RightLeg  8.57264 -20.4254 1.78639
RightFoot  -2.36914 -0.271891 3.25613
RightToes  0.000481921 0.542163 -0.142578
Spine  10.9622 -3.68686 -5.78165
Spine1  -0.0980425 -5.90222 9.20579
HEad  17.7362 -10.7681 -1.73892
LeftShoulder1  3.56385 -4.86439 -36.3924
LeftArm  1.98904 14.6937 -38.4535
LeftForeArm  -177.728 -57.8708 -165.173
LeftHand  -0.25398 0.0180481 5.50724
RightShoulder  1.88629 2.72932 24.0764
RightArm  -13.6224 -51.1989 58.519
RightForeArm  154.477 49.9454 166.884
RightHand  -0.0519175 -4.77679 -4.26526
LeftUpLeg  -3.53468 3.68116 2.17188
LeftLeg  4.3246 4.00463 -2.80046
LeftFoot  1.12766 0.126042 -1.21747
LeftToes  1.06247e-005 4.65869e-005 -8.65511e-006
189
root  14.139 40.7039 7.86146 167.812 79.4085 168.401
RightUpLeg  -0.227365 -12.2536 -11.2081
RightLeg  9.09235 -14.3587 1.12082
RightFoot  -2.08232 -0.246336 2.86677
RightToes  0.000481921 0.542163 -0.142578
Spine  10.8513 -1.99336 -4.63622
Spine1  -0.0132285 -3.61061 6.61843
HEad  18.7081 -8.98779 -0.454525
LeftShoulder1  3.8037 -5.33484 -36.8378
LeftArm  0.856609 15.4524 -37.7721
LeftForeArm  -177.748 -57.5304 -165.358
LeftHand  -0.25398 0.0180481 5.50724
RightShoulder  2.10594 3.37905 24.4377
RightArm  -10.068 -46.0167 55.6567
RightForeArm  161.848 51.3166 166.814
RightHand  -0.0441208 -5.18663 -1.54473
LeftUpLeg  -1.49802 4.59297 2.60464
LeftLeg  3.90858 9.46926 -3.20256
LeftFoot  0.442155 0.122039 -1.20926
LeftToes  1.06247e-005 4.65869e-005 -8.65511e-006
190
root  14.1753 40.7078 7.69111 152.685 84.8428 153.618
RightUpLeg  -1.05325 -11.2736 -10.9484
RightLeg  8.66247 -9.83523 1.03855
RightFoot  -1.60157 -0.244736 2.74174
RightToes  0.000481921 0.542163 -0.142578
Spine  10.3546 -0.680573 -3.70915
Spine1  0.0405405 -1.90354 5.13317
HEad  18.9301 -7.39867 0.0201039
LeftShoulder1  4.09868 -5.9221 -37.2876
LeftArm  -0.278385 16.0339 -37.1629
LeftForeArm  -177.722 -57.3795 -165.443
LeftHand  -0.25398 0.0180481 5.50724
RightShoulder  2.31365 3.60667 26.4526
RightArm  -5.07761 -35.9332 49.1829
RightForeArm  168.954 53.7289 166.222
RightHand  -0.0459051 -5.79741 1.6161
LeftUpLeg  0.0308454 5.33365 2.84399
LeftLeg  3.46088 14.1817 -3.61954
LeftFoot  -0.140383 0.126369 -1.2803
LeftToes  1.06247e-005 4.65869e-005 -8.65511e-006
191
root  14.2116 40.7092 7.50555 103.48 87.6697 104.639
RightUpLeg  -1.35925 -10.5334 -10.8096
RightLeg  7.72137 -6.38792 1.36111
RightFoot  -1.00761 -0.271746 2.92665
RightToes  0.000481921 0.542163 -0.142578
Spine  9.47784 -0.21177 -2.3207
Spine1  0.703719 -1.12012 3.95783
HEad  18.6638 -5.02355 -1.08283
LeftShoulder1  4.30537 -6.33918 -37.5444
LeftArm  -1.64235 16.5875 -36.8671
LeftForeArm  -178.88 -57.6417 -165.203
LeftHand  -0.25398 0.0180481 5.50724
RightShoulder  2.62611 4.17967 28.1689
RightArm  -2.51426 -24.5104 45.1615
RightForeArm  169.626 57.4776 164.31
RightHand  -0.0491874 -5.79281 0.988948
LeftUpLeg  1.00399 5.78915 2.98882
LeftLeg  3.39391 17.8591 -3.78318
LeftFoot  -0.743838 0.131393 -1.37096
LeftToes  1.06247e-005 4.65869e-005 -8.65511e-006
192
root  14.242 40.708 7.33311 28.5258 86.4764 29.892
RightUpLeg  -1.63097 -10.0597 -10.6314
RightLeg  7.00829 -3.45337 1.52756
RightFoot  -0.432968 -0.30874 3.201
RightToes  0.000481921 0.542163 -0.142578
Spine  8.97904 0.110073 0.333178
Spine1  1.23055 -0.168984 1.474
HEad  18.4012 -2.86861 -2.6243
LeftShoulder1  4.53456 -6.87977 -37.4887
LeftArm  -2.24353 16.7371 -36.5666
LeftForeArm  179.502 -58.3351 -164.678
LeftHand  -0.25398 0.0180481 5.50724
RightShoulder  2.85096 4.9415 27.7467
RightArm  -2.86635 -17.1244 45.3992
RightForeArm  166.135 60.5505 162.111
RightHand  -0.0374497 -5.37435 -2.2631
LeftUpLeg  1.70914 6.09515 3.05156
LeftLeg  3.51767 20.9714 -3.76581
LeftFoot  -1.27498 0.132139 -1.42488
LeftToes  1.06247e-005 4.65869e-005 -8.65511e-006
193
root  14.2826 40.7161 7.21183 17.5746 84.4591 18.9436
RightUpLeg  -1.90993 -9.64499 -10.4651
RightLeg  6.54733 -1.8658 1.41267
RightFoot  -0.0191286 -0.335823 3.38495
RightToes  0.000481921 0.542163 -0.142578
Spine  8.92748 0.454419 2.97226
Spine1  1.03077 0.899554 -1.42364
HEad  18.1953 -1.86914 -3.04176
LeftShoulder1  4.85113 -7.66623 -37.2694
LeftArm  -1.67846 16.4615 -35.9594
LeftForeArm  178.825 -58.8589 -164.315
LeftHand  -0.25398 0.0180481 5.50724
RightShoulder  2.82183 5.28643 26.0124
RightArm  -4.39874 -15.6834 47.371
RightForeArm  161.419 60.818 161.459
RightHand  -0.0383522 -5.26902 -5.17204
LeftUpLeg  2.09654 6.16979 2.94296
LeftLeg  3.38774 22.9842 -3.7902
LeftFoot  -1.46842 0.123347 -1.34105
LeftToes  1.06247e-005 4.65869e-005 -8.65511e-006
194
root  14.341 40.7338 7.16162 19.4544 84.4988 20.5632
RightUpLeg  -1.88168 -9.49286 -10.5169
RightLeg  6.09684 -2.12373 1.28797
RightFoot  0.123416 -0.349256 3.48576
RightToes  0.000481921 0.542163 -0.142578
Spine  8.78064 0.327994 3.84039
Spine1  0.496755 1.0481 -2.64502
HEad  17.6704 -1.52 -2.21211
LeftShoulder1  5.10668 -8.29884 -37.1201
LeftArm  -0.775948 16.1965 -35.3459
LeftForeArm  178.959 -58.7653 -164.38
LeftHand  -0.25398 0.0180481 5.50724
RightShoulder  2.64348 5.0068 24.9345
RightArm  -4.98316 -17.3035 48.2396
RightForeArm  156.77 58.9097 162.335
RightHand  -0.0526762 -4.99552 -6.54498
LeftUpLeg  2.02656 5.98341 2.7049
LeftLeg  3.02572 23.1386 -3.88869
LeftFoot  -1.34204 0.108124 -1.15232
LeftToes  1.06247e-005 4.65869e-005 -8.65511e-006
